# xmcd CD database file
# Copyright (C) 1995 Ti Kan
#
# Track frame offsets:
#	187
#	18395
#	31785
#	50237
#	69762
#	85400
#	100342
#	116282
#	132787
#	149617
#
# Disc length: 2201 seconds
#
# Revision: 1
# Processed by: cddbd v1.4b41PL1 Copyright (c) Steve Scherf et al.
# Submitted via: xmcd 1.4
#
DISCID=8308970a
DTITLE=Steve Wariner - I Should Be With You
DYEAR=1900
DGENRE=
TTITLE0=Runnin'
TTITLE1=More Than Enough
TTITLE2=Hold On (A Little Longer)
TTITLE3=Caught Between Your Duty And Your Dream
TTITLE4=I Should Be With You
TTITLE5=All That Matters
TTITLE6=Party Of One
TTITLE7=Baby I'm Yours
TTITLE8=Somewhere Between Old And New York
TTITLE9=Lights Out
EXTD=
EXTT0=
EXTT1=
EXTT2=
EXTT3=
EXTT4=
EXTT5=
EXTT6=
EXTT7=
EXTT8=
EXTT9=
PLAYORDER=
